<?xml version="1.0" encoding="UTF-8"?>
<!DOCTYPE svg PUBLIC "-//W3C//DTD SVG 1.1//EN" "http://www.w3.org/Graphics/SVG/1.1/DTD/svg11.dtd">
<!-- Creator: CorelDRAW 2021 (64 Bit) -->
<svg xmlns="http://www.w3.org/2000/svg" xml:space="preserve" width="100mm" height="100mm" version="1.1" style="shape-rendering:geometricPrecision; text-rendering:geometricPrecision; image-rendering:optimizeQuality; fill-rule:evenodd; clip-rule:evenodd"
viewBox="0 0 10000 10000"
 xmlns:xlink="http://www.w3.org/1999/xlink"
 xmlns:xodm="http://www.corel.com/coreldraw/odm/2003">
 <defs>
  <style type="text/css">
   <![CDATA[
    .fil0 {fill:white}
   ]]>
  </style>
 </defs>
 <g id="Camada_x0020_1">
  <metadata id="CorelCorpID_0Corel-Layer"/>
  <path class="fil0" d="M4547.37 8130.38c-10.01,-47.41 -44.23,-101.08 -68.7,-162.46 -24.49,-61.36 -39.2,-130.41 -45.36,-191.07 -6.19,-60.66 -3.83,-112.94 23.86,-170.76 27.65,-57.81 80.64,-121.21 131.84,-167.59 51.2,-46.38 100.6,-75.75 142.31,-93.67 41.68,-17.91 75.68,-24.37 98.53,-28.98 22.82,-4.6 34.49,-7.35 61.72,-44.24 27.19,-36.88 69.89,-107.87 106.42,-187.07 36.53,-79.2 66.89,-166.61 82.03,-259.67 15.12,-93.07 15.04,-191.79 -6.47,-296.32 -21.51,-104.5 -64.43,-214.75 -98.87,-300.4 -34.43,-85.65 -60.36,-146.68 -77.34,-195.91 -17,-49.25 -25.06,-86.7 -9.71,-147.79 15.32,-61.09 54.01,-145.84 110.16,-254.73 56.16,-108.89 129.8,-241.95 197.69,-361.71 67.86,-119.74 130,-226.21 227.71,-388.1 97.71,-161.88 230.97,-379.19 386.12,-629.83 155.13,-250.63 332.12,-534.55 519.67,-842.57 187.54,-308.02 385.61,-640.14 503.51,-832.63 117.89,-192.46 155.61,-245.31 185.3,-283.17 29.66,-37.84 51.28,-60.69 84.6,-78.17 33.31,-17.48 78.27,-29.62 109.99,-37.47 31.71,-7.85 50.19,-11.43 64.39,-23.26 14.18,-11.82 24.11,-31.9 34.53,-59.81 10.39,-27.91 21.28,-63.66 36.94,-83.93 15.67,-20.28 36.16,-25.1 53.7,-21.13 17.51,3.98 32.07,16.76 44.05,39.78 11.98,23.03 21.37,56.32 34.64,86.37 13.23,30.06 30.33,56.91 48.71,72.65 18.35,15.75 37.98,20.39 50.22,11.73 12.22,-8.67 17.07,-30.65 25.6,-53.49 8.5,-22.84 20.67,-46.53 33.75,-69.68 13.07,-23.13 27.06,-45.72 40.92,-67.11 13.86,-21.39 27.63,-41.62 9.68,-53.98 -17.96,-12.36 -67.63,-16.87 -106.08,-16.31 -38.45,0.56 -65.68,6.2 -89.96,3.04 -24.28,-3.16 -45.6,-15.11 -57.85,-24.56 -12.28,-9.47 -15.44,-16.44 -4.67,-42.89 10.73,-26.45 35.4,-72.39 59.32,-115.06 23.91,-42.65 47.04,-82.04 65.23,-106.39 18.18,-24.33 31.44,-33.63 53.03,-27.15 21.59,6.5 51.5,28.79 68.29,54.17 16.79,25.37 20.39,53.83 27.65,76.43 7.24,22.61 18.12,39.32 31.81,51.53 13.68,12.23 30.13,19.92 49.74,11.44 19.61,-8.46 42.36,-33.1 53.31,-53.8 10.92,-20.72 10.09,-37.5 14.3,-57.38 4.17,-19.88 13.42,-42.92 23.14,-60.64 9.71,-17.7 19.9,-30.14 18.44,-42.92 -1.47,-12.77 -14.58,-25.87 -32.93,-28.5 -18.37,-2.63 -42,5.24 -61.49,12.53 -19.51,7.3 -34.9,14 -55.38,13.82 -20.5,-0.2 -46.11,-7.3 -63.4,-13.64 -17.33,-6.33 -26.36,-11.92 -31.21,-16.17 -4.87,-4.26 -5.55,-7.2 4.37,-19.19 9.9,-11.97 30.42,-32.99 52.92,-52.17 22.48,-19.2 46.96,-36.52 64.03,-59.06 17.06,-22.53 26.76,-50.27 28.84,-75.83 2.06,-25.58 -3.44,-48.96 -9.7,-69.09 -6.29,-20.13 -13.36,-37 -25.47,-55.74 -12.13,-18.76 -29.36,-39.39 -45.31,-58.02 -15.95,-18.62 -30.66,-35.21 -43.59,-47.6 -12.96,-12.38 -24.16,-20.56 -35.38,-25.64 -11.22,-5.07 -22.49,-7.04 -33.8,-5.94 -11.32,1.13 -22.65,5.33 -31.29,6.21 -8.68,0.89 -14.68,-1.55 -19.37,-10.08 -4.72,-8.53 -8.16,-23.16 -13.17,-36.26 -5.01,-13.1 -11.59,-24.65 -26.8,-30.33 -15.24,-5.69 -39.11,-5.47 -59.76,-6.39 -20.67,-0.93 -38.13,-3.01 -54.75,-6.41 -16.64,-3.42 -32.41,-8.19 -45.93,-11.57 -13.55,-3.38 -24.82,-5.34 -36.13,-4.24 -11.32,1.13 -22.65,5.33 -36.76,10.96 -14.12,5.65 -30.97,12.7 -45.38,21.88 -14.44,9.19 -26.46,20.51 -34.86,37.15 -8.44,16.65 -13.31,38.61 -18.51,59.14 -5.19,20.52 -10.74,39.55 -18.36,57.95 -7.64,18.38 -17.37,36.11 -26.82,48.36 -9.46,12.27 -18.68,19.06 -27.54,22.3 -8.89,3.24 -17.45,2.96 -30.3,-2.5 -12.87,-5.47 -30.03,-16.1 -47.82,-27.73 -17.78,-11.63 -36.18,-24.29 -44.41,-41.25 -8.24,-16.98 -6.32,-38.25 -6.45,-55.21 -0.13,-16.94 -2.32,-29.51 -8.15,-36.26 -5.83,-6.73 -15.28,-7.57 -29.28,-3.12 -14.01,4.45 -32.53,14.2 -48.11,28.3 -15.6,14.08 -28.27,32.48 -37.52,50.49 -9.27,18 -15.16,35.57 -21.27,50.51 -6.14,14.96 -12.51,27.27 -18.14,39.39 -5.64,12.12 -10.52,24.09 -5.67,36.44 4.83,12.37 19.39,25.14 35.58,28.28 16.15,3.14 33.92,-3.36 54.97,-9.09 21.02,-5.71 45.3,-10.66 69.8,-9.88 24.49,0.8 49.19,7.36 64.24,12.28 15.04,4.95 20.47,8.31 24.22,14.37 3.72,6.07 5.78,14.83 -6.26,37.34 -12.07,22.53 -38.28,58.78 -59.42,86.9 -21.15,28.13 -37.3,48.13 -54.71,69.2 -17.41,21.09 -36.12,43.22 -50.87,55.96 -14.76,12.73 -25.55,16.06 -43.87,10.33 -18.33,-5.72 -44.16,-20.46 -62.71,-41.94 -18.57,-21.49 -29.86,-49.7 -39,-72.24 -9.17,-22.53 -16.23,-39.39 -31.96,-47.26 -15.75,-7.88 -40.17,-6.73 -53.05,4.02 -12.92,10.76 -14.3,31.12 -23.71,53.4 -9.43,22.29 -26.88,46.45 -42.05,63.91 -15.19,17.45 -28.09,28.22 -32.05,45.74 -4,17.53 0.95,41.81 18.46,53.89 17.49,12.1 47.57,11.97 77.16,6.54 29.58,-5.4 58.69,-16.13 85.39,-15.84 26.68,0.28 50.94,11.53 63.21,21 12.24,9.47 12.51,17.12 2.1,31.92 -10.43,14.79 -31.48,36.72 -51.33,55.65 -19.86,18.95 -38.48,34.94 -46.25,57.6 -7.79,22.66 -4.74,52.02 -0.76,86.95 3.98,34.96 8.89,75.48 2.36,113.27 -6.55,37.81 -24.51,72.91 -45.9,111.5 -21.4,38.6 -46.22,80.71 -134.96,220.03 -88.73,139.33 -241.4,375.87 -416.08,650.01 -174.67,274.14 -371.37,585.84 -592.68,932.3 -221.34,346.45 -467.27,727.61 -620.14,966.52 -152.9,238.93 -212.71,335.55 -257.78,406.35 -45.07,70.8 -75.39,115.75 -116.28,161.63 -40.9,45.89 -92.36,92.74 -143.1,126.29 -50.76,33.54 -100.78,53.79 -164.38,68.76 -63.63,14.98 -140.81,24.66 -215.24,32.92 -74.47,8.27 -146.17,15.1 -218.09,32.43 -71.93,17.31 -144.1,45.07 -213.63,80.74 -69.56,35.67 -136.46,79.18 -193.21,131.5 -56.75,52.33 -103.31,113.45 -136.28,166.72 -32.99,53.29 -52.41,98.75 -64.6,125.54 -12.22,26.8 -17.25,34.93 -12.74,50.84 4.52,15.91 18.6,39.61 27.57,82.64 8.95,43.02 12.85,105.37 3.63,159.64 -9.25,54.24 -31.55,100.38 -55.19,150.71 -23.68,50.33 -48.67,104.8 -85.96,147.92 -37.32,43.13 -86.95,74.85 -133.96,96.34 -47.04,21.48 -91.48,32.73 -120.5,37.23 -29.03,4.52 -42.66,2.34 -70.76,-0.69 -28.12,-3.04 -70.67,-6.91 -101.32,-10.9 -30.67,-3.96 -49.35,-8.05 -93.91,25.58 -44.56,33.64 -114.96,104.99 -174.47,179.94 -59.52,74.97 -108.16,153.56 -152.79,245.84 -44.64,92.29 -85.28,198.32 -103.17,292.8 -17.88,94.48 -13.02,177.46 -0.36,250.88 12.64,73.4 33.06,137.25 85.29,221.42 52.21,84.16 136.2,188.61 209.41,278.26 73.17,89.65 135.52,164.48 201.68,229.17 66.15,64.67 136.09,119.18 240.69,170.19 104.58,50.99 243.84,98.46 392.26,129.11 148.41,30.67 305.99,44.51 433.43,38.43 127.41,-6.06 224.71,-32.04 314.79,-70.62 90.07,-38.55 172.94,-89.69 238.07,-155.55 65.13,-65.86 112.53,-146.47 160.4,-234.88 47.85,-88.42 96.18,-184.68 127.47,-253.39 31.28,-68.71 45.51,-109.87 35.51,-157.28z"/>
 </g>
</svg>
