<?xml version="1.0" encoding="UTF-8"?>
<!DOCTYPE svg PUBLIC "-//W3C//DTD SVG 1.1//EN" "http://www.w3.org/Graphics/SVG/1.1/DTD/svg11.dtd">
<!-- Creator: CorelDRAW 2021 (64 Bit) -->
<svg xmlns="http://www.w3.org/2000/svg" xml:space="preserve" width="100mm" height="100mm" version="1.1" style="shape-rendering:geometricPrecision; text-rendering:geometricPrecision; image-rendering:optimizeQuality; fill-rule:evenodd; clip-rule:evenodd"
viewBox="0 0 10000 10000"
 xmlns:xlink="http://www.w3.org/1999/xlink"
 xmlns:xodm="http://www.corel.com/coreldraw/odm/2003">
 <defs>
  <style type="text/css">
   <![CDATA[
    .fil0 {fill:white;fill-rule:nonzero}
   ]]>
  </style>
 </defs>
 <g id="Camada_x0020_1">
  <metadata id="CorelCorpID_0Corel-Layer"/>
  <path class="fil0" d="M2700.08 8388.21l707.21 385.81 0 229.74 -117.42 -63.54 0 63.54 -783.42 -427.18 -748.64 427.18 0 -66.44 -116.77 66.44 0 -229.74 729.28 -417.69 0 -2513.98 -1572.06 -112.28 22.53 -316.9 130.44 9.04 0 -2546.27 1324.86 100.59 0 -1455.03c-755.75,-5.97 -1353.9,-81.25 -1353.9,-172.34 0,-91.34 598.15,-165.78 1353.9,-172.34l0 -172.97 189.02 0 0 172.97c755.1,5.73 1353.34,80.62 1353.34,172.34 0,91.09 -598.24,165.74 -1353.34,171.92l0 1469.84 1514.57 114.76 0 854.31c-678.2,377.58 -1144.72,1089.57 -1177.32,1912.81l-102.28 -7.4 0 2522.81zm5175.5 -2547.68l0 0 -0.69 0 1319.25 -110.46 -22.72 -316.9 -129.06 9.67 0 -2546.9 -2001.78 164.73 -33.46 22.63 -13.07 -18.9 -750.73 61.67 0 875.71c659.43,382.92 1110.13,1084.44 1141.86,1893.91l278.21 -19.75 0 2417.92 -729.51 417.1 0 230.12 804.87 -460.67 844.16 460.67 0 -230.12 -707.33 -385.43 0 -2465zm-1782.04 1987.88l0 0 45.61 0 0 1143.65 -311.76 0 0 -1018.41c-234.28,91.13 -489.21,141.51 -756.11,141.51 -248.48,0 -487.56,-44.02 -708.95,-123.39l0 1000.29 -312.29 0 0 -1142.81c-641.7,-358.27 -1076.32,-1044.15 -1076.32,-1831.6 0,-1158.28 939.49,-2097.32 2097.56,-2097.32 1158.78,0 2097.86,938.62 2097.86,2097.11 0,787.04 -433.78,1472.53 -1075.6,1830.97zm-187.44 -1830.76l0 0c0,-460.49 -373.64,-835.38 -834.82,-835.38 -460.43,0 -834.99,374.89 -834.99,835.38 0,460.26 374.56,834.97 834.99,834.97 460.49,0 834.82,-374.71 834.82,-834.97zm3288.04 -3337.03l0 0 -31.02 -187.95 -1693.98 276.18 1502.9 -1021.91 -107.1 -157.74 -1842.38 1252.45 -204.64 33.34 30.68 188.16 130.77 -21.19 14.14 21.82 47.07 -3.11 54.83 -37.61 2098.73 -342.44z"/>
 </g>
</svg>
