<?xml version="1.0" encoding="UTF-8"?>
<!DOCTYPE svg PUBLIC "-//W3C//DTD SVG 1.1//EN" "http://www.w3.org/Graphics/SVG/1.1/DTD/svg11.dtd">
<!-- Creator: CorelDRAW 2021 (64 Bit) -->
<svg xmlns="http://www.w3.org/2000/svg" xml:space="preserve" width="100mm" height="100mm" version="1.1" style="shape-rendering:geometricPrecision; text-rendering:geometricPrecision; image-rendering:optimizeQuality; fill-rule:evenodd; clip-rule:evenodd"
viewBox="0 0 10000 10000"
 xmlns:xlink="http://www.w3.org/1999/xlink"
 xmlns:xodm="http://www.corel.com/coreldraw/odm/2003">
 <defs>
  <style type="text/css">
   <![CDATA[
    .fil0 {fill:white;fill-rule:nonzero}
   ]]>
  </style>
 </defs>
 <g id="Camada_x0020_1">
  <metadata id="CorelCorpID_0Corel-Layer"/>
  <g id="_3164687536592">
   <path class="fil0" d="M7249.21 3080.64c133.15,-121.47 313.57,-150.57 448.29,-81.06l25.74 -25.69c81.25,-199.12 227.83,-419.41 431.12,-622.7 203.37,-203.29 423.77,-350.06 622.78,-431.31 0,0 39.15,-39.12 87.63,-87.66 48.45,-48.37 19.17,-156.23 -65.5,-240.88l-497.89 -498.02c-84.67,-84.64 -192.04,-114.28 -239.92,-66.68l-86.59 86.89c-81.05,199.7 -228.27,421.33 -432.62,625.74 -204.14,204.03 -425.69,351.22 -625.58,432.43l-17.85 17.77c85.58,136.41 59.23,330.82 -69.21,471.76l-1337.6 1329.65c-57.94,-3.59 -150.97,-50.45 -275.43,-243.32 -222.62,-344.8 -742.11,-541.1 -1169.88,201.01 -427.83,742.09 -72.99,864.9 -1291.46,1006.22l0.25 0.55c-430.1,23.63 -837.75,187.99 -1148.63,498.95 -737.56,737.59 -653.63,2017.75 187.6,2858.85 841.42,841.47 2121.5,925.54 2859.01,187.98 13.38,-13.43 25.85,-27.22 38.49,-40.82l0.3 0.38c0,0 4.8,-5.1 12.84,-14.37 59.28,-64.6 112.28,-132.79 159.44,-204.41 189.83,-269.4 460.76,-753.63 400.11,-1259.76 -91.67,-763.83 624.2,-728.87 921.02,-921 296.76,-192.16 401.5,-357.82 410.25,-549.98 0,0 -353.71,248.83 -676.63,-74.25 -259.64,-259.58 -144.2,-702.03 -32.28,-935.94l1362.2 -1420.33z"/>
  </g>
 </g>
</svg>
