<?xml version="1.0" encoding="UTF-8"?>
<!DOCTYPE svg PUBLIC "-//W3C//DTD SVG 1.1//EN" "http://www.w3.org/Graphics/SVG/1.1/DTD/svg11.dtd">
<!-- Creator: CorelDRAW 2021 (64 Bit) -->
<svg xmlns="http://www.w3.org/2000/svg" xml:space="preserve" width="100mm" height="100mm" version="1.1" style="shape-rendering:geometricPrecision; text-rendering:geometricPrecision; image-rendering:optimizeQuality; fill-rule:evenodd; clip-rule:evenodd"
viewBox="0 0 10000 10000"
 xmlns:xlink="http://www.w3.org/1999/xlink"
 xmlns:xodm="http://www.corel.com/coreldraw/odm/2003">
 <defs>
  <style type="text/css">
   <![CDATA[
    .fil0 {fill:white;fill-rule:nonzero}
   ]]>
  </style>
 </defs>
 <g id="Camada_x0020_1">
  <metadata id="CorelCorpID_0Corel-Layer"/>
  <path class="fil0" d="M8353.65 3723.46c-600.98,-107.11 -1169.83,-391.42 -1622.93,-843.58 -452.95,-452.95 -736.71,-1021.51 -843.44,-1622.63 608.44,-381.29 1490.4,-246.18 2101.74,364.77 610.42,610.68 745.38,1492.62 364.63,2101.44zm-419.93 419.92l0 0c-577.23,-161.22 -1118.27,-460.68 -1562.56,-904.3 -443.78,-444.16 -742.97,-985.31 -903.65,-1562.46 -380.63,609.13 -245.67,1491.04 364.63,2101.71 610.95,610.45 1492.48,745.79 2101.58,365.05zm-2416.79 2705.19l0 0c-759.1,0 -1301.99,474.56 -1781.08,893.13 -528.9,462.53 -987.45,863.53 -1662.37,655.45 -133.61,-98.34 -137.32,-178.54 -139.06,-205.68 -9.36,-182.8 212.07,-428.2 320.66,-518.26 13.3,-10.9 21.19,-25.83 31.59,-39.44 178.12,62.1 382.88,26.41 525.69,-116.17l3456.6 -2845.33c-285.89,-121.23 -558.33,-296.83 -795.84,-534.77 -237.82,-237.67 -413.16,-510.48 -534.12,-795.87l-2845.26 3456.87c-126.57,126.56 -163.34,301.85 -128.81,464.38 -10.52,6.69 -22.66,9.86 -32.52,17.6 -54.22,44.51 -529.17,448.69 -505.73,934.69 8.39,170.77 82.87,417.52 391.3,623.98l60.99 29.58c197.72,66.09 382.1,94.86 555.3,94.86 676.24,0 1180.34,-440.68 1636.39,-839.29 451.36,-394.86 877.93,-767.37 1446.27,-767.37 1310,0 2324.1,1403.91 2334.46,1417.49 80.86,115.66 240.22,141.49 353.84,60.2 114.58,-80.97 141.49,-239.25 60.63,-353.83 -47.29,-66.59 -1174.5,-1632.22 -2748.93,-1632.22z"/>
 </g>
</svg>
